<svg xmlns="http://www.w3.org/2000/svg" viewBox="0 0 512.53 54.25"><defs><style>.cls-1{fill:#010101;}.cls-2{fill:#eb2227;}</style></defs><title>Logo-Color</title><g id="Layer_2" data-name="Layer 2"><g id="TEMPLATE"><g id="Typography"><path class="cls-1" d="M0,30.17V22.09L28.36,9.67v8.26L8.55,26.07l19.81,8.15v8.37Z"/><path class="cls-1" d="M57.83,0h7.55L39.43,54.25H31.87Z"/><path class="cls-1" d="M64.92,40.78l5.33-6.39c3.69,3,7.56,5,12.24,5,3.69,0,5.92-1.46,5.92-3.87v-.11c0-2.29-1.41-3.46-8.26-5.22-8.26-2.11-13.59-4.39-13.59-12.53v-.12c0-7.44,6-12.36,14.35-12.36a23.72,23.72,0,0,1,15.23,5.21l-4.68,6.8c-3.64-2.52-7.21-4.05-10.67-4.05s-5.27,1.59-5.27,3.58v.11c0,2.7,1.76,3.58,8.85,5.4,8.32,2.16,13,5.15,13,12.3v.12c0,8.14-6.21,12.71-15.05,12.71A26.11,26.11,0,0,1,64.92,40.78Z"/><path class="cls-1" d="M103.41,26.36v-.11c0-11.66,9.2-21.21,21.85-21.21S147,14.47,147,26.13v.12c0,11.66-9.2,21.21-21.86,21.21S103.41,38,103.41,26.36Zm34.16,0v-.11c0-7-5.16-12.89-12.43-12.89s-12.3,5.74-12.3,12.77v.12c0,7,5.16,12.89,12.42,12.89S137.57,33.4,137.57,26.36Z"/><path class="cls-1" d="M154.38,29.18V5.74h9v23.2c0,6.68,3.34,10.14,8.85,10.14s8.85-3.34,8.85-9.84V5.74h9V28.88c0,12.43-7,18.52-18,18.52S154.38,41.25,154.38,29.18Z"/><path class="cls-1" d="M199.32,5.74h18.74c5.22,0,9.26,1.47,12,4.16a12.91,12.91,0,0,1,3.51,9.38v.11c0,6.62-3.57,10.78-8.79,12.72l10,14.64H224.22l-8.79-13.12h-7.09V46.75h-9Zm18.16,19.92c4.39,0,6.91-2.34,6.91-5.8v-.12c0-3.86-2.69-5.85-7.09-5.85h-9V25.66Z"/><path class="cls-1" d="M239.86,26.36v-.11C239.86,14.59,248.65,5,261.24,5c7.74,0,12.37,2.58,16.17,6.33L271.67,18c-3.16-2.87-6.38-4.63-10.48-4.63-6.92,0-11.9,5.74-11.9,12.77v.12c0,7,4.86,12.89,11.9,12.89,4.68,0,7.55-1.88,10.78-4.81l5.74,5.8c-4.22,4.51-8.91,7.33-16.82,7.33A20.7,20.7,0,0,1,239.86,26.36Z"/><path class="cls-1" d="M284.91,5.74h30.94v8h-22v8.32h19.33v8H293.88v8.62h22.26v8H284.91Z"/><path class="cls-2" d="M322.88,5.74h32.81v10H334.24v7h19.4v9.44h-19.4V46.75H322.88Z"/><path class="cls-2" d="M360.43,28.77v-23h11.49V28.53c0,5.92,3,8.73,7.55,8.73s7.62-2.69,7.62-8.43V5.74h11.48V28.47c0,13.19-7.55,19.05-19.21,19.05S360.43,41.6,360.43,28.77Z"/><path class="cls-2" d="M402.21,40.66l6.32-7.56A21.21,21.21,0,0,0,421.83,38c3.11,0,4.75-1.05,4.75-2.81v-.12c0-1.75-1.35-2.63-7-4-8.73-2-15.47-4.45-15.47-12.83v-.12c0-7.61,6-13.12,15.88-13.12,7,0,12.42,1.87,16.87,5.45l-5.68,8a20.17,20.17,0,0,0-11.49-4c-2.75,0-4.1,1.11-4.1,2.64v.12c0,1.87,1.41,2.69,7.15,4C432.14,23.26,438,26.31,438,34v.12c0,8.38-6.62,13.36-16.58,13.36A28.74,28.74,0,0,1,402.21,40.66Z"/><path class="cls-2" d="M443.51,5.74h33v9.61H454.76v6.27h19.68v9H454.76v6.51h22v9.66H443.51Z"/><path class="cls-1" d="M484.17,34.33,504,26.19l-19.8-8.14V9.67l28.36,12.42v8.08L484.17,42.59Z"/></g></g></g></svg>